<svg width="90" height="180" viewBox="0 0 90 180" xmlns="http://www.w3.org/2000/svg"><title>megaphone-intrafamiliar</title><g fill="none" fill-rule="evenodd"><path fill-opacity=".1" fill="#000" d="M0 0h90v180H0z"/><path d="M25.37 104.766h-.018l-7.903 2.894-1.08-2.9-2.294-6.177-1.077-2.9L20.9 92.79 52.455 66l14.41 38.79-21.748-.013c-.134 3.807-2.58 7.275-6.285 8.632-4.974 1.82-10.516-.716-12.352-5.657l-1.11-2.988zm3.87.002l12.245.007c-.13 2.322-1.64 4.423-3.91 5.253-3.097 1.135-6.546-.445-7.69-3.52l-.645-1.74zm-11.58-6.95l4.5-1.648.608-.223.493-.42 27.594-23.425 10.803 29.08-36.302-.02h-.65l-.608.223-4.498 1.647-1.938-5.215zm47.557-4.376l-1.256-3.38c3.053-1.118 4.62-4.492 3.494-7.52-1.125-3.032-4.523-4.588-7.575-3.47l-1.256-3.38c4.928-1.807 10.417.707 12.236 5.6 1.816 4.895-.714 10.345-5.643 12.15zm-2.145-5.776c1.794-.657 2.712-2.634 2.05-4.416-.662-1.782-2.653-2.694-4.447-2.037l2.397 6.453zm4.412 11.88l-1.256-3.38c6.442-2.36 9.748-9.482 7.373-15.878-2.374-6.396-9.546-9.68-15.99-7.32l-1.253-3.38c8.318-3.048 17.58 1.193 20.65 9.453 3.068 8.26-1.203 17.46-9.522 20.508z" fill="#FFF"/></g></svg>