<svg width="90" height="180" viewBox="0 0 90 180" xmlns="http://www.w3.org/2000/svg"><title>megaphone-mujer</title><g fill="none" fill-rule="evenodd"><path fill-opacity=".1" fill="#000" d="M0 0h90v180H0z"/><path d="M25.293 104.773l-7.858 2.89-1.074-2.902-2.285-6.174-1.074-2.9 7.878-2.895L52.328 66l14.363 38.788-21.714-.012c-.134 3.807-2.572 7.276-6.264 8.633-4.958 1.82-10.482-.716-12.312-5.656l-1.105-2.982zm3.855-.005l12.206.006c-.13 2.322-1.635 4.423-3.895 5.254-3.09 1.135-6.53-.444-7.67-3.52l-.643-1.74zm-11.502-6.95l4.483-1.647.605-.22.492-.42L50.73 72.1l10.77 29.08-36.186-.02h-.647l-.607.225-4.483 1.646-1.93-5.214zM72.2 80.73l-6.587 14.235 1.77 4.78L77 78.965l-20.86-9.58 1.77 4.783L72.2 80.73zm-12.73-2.355l1.77 4.782 1.938.89-.893 1.93 1.77 4.78 3.92-8.475-8.506-3.907z" fill="#FFF"/></g></svg>