<svg width="90" height="180" viewBox="0 0 90 180" xmlns="http://www.w3.org/2000/svg"><title>megaphone-persona</title><g fill="none" fill-rule="evenodd"><path fill-opacity=".1" fill="#000" d="M0 0h90v180H0z"/><path d="M25.294 104.77h-.02l-7.852 2.894-1.07-2.898-2.28-6.177L13 95.69l7.85-2.897L52.194 66l14.324 38.784-21.604-.008c-.134 3.807-2.564 7.276-6.243 8.633-4.942 1.82-10.45-.715-12.272-5.654l-1.103-2.988zm3.844 0l12.165.005c-.13 2.32-1.63 4.422-3.88 5.253-3.08 1.135-6.507-.444-7.643-3.52l-.642-1.738zm-11.506-6.95l4.467-1.647.604-.223.49-.418 27.41-23.43 10.737 29.076-36.064-.014h-.647l-.606.223-4.468 1.65-1.925-5.216zm58.412-20.505l-10.8 3.985 8.466-7.798-2.444-2.65-8.19 7.365L67.59 68.18l-3.275-1.508-3.04 6.607-2.44-6.615-3.385 1.248 12.3 33.3 3.382-1.248-2.444-6.618 6.608 3.052 1.51-3.27-9.955-4.683 11 .334.148-3.6-11.585-.473 10.877-4.012-1.248-3.38z" fill="#FFF"/></g></svg>