<svg width="90" height="180" viewBox="0 0 90 180" xmlns="http://www.w3.org/2000/svg"><title>megaphone-etica</title><g fill="none" fill-rule="evenodd"><path fill-opacity=".1" fill="#000" d="M0 0h90v180H0z"/><path d="M24.45 106.648l-7.96 2.94-1.086-2.938-2.316-6.26L12 97.453l7.96-2.94L51.723 67.34l14.544 39.304-21.925.003c-.133 3.86-2.594 7.376-6.325 8.754-5.01 1.85-10.594-.716-12.447-5.722l-1.12-3.03zm3.898 0l12.336-.002c-.13 2.353-1.65 4.484-3.933 5.327-3.12 1.152-6.595-.446-7.75-3.563l-.65-1.762zm-11.65-7.035l4.53-1.674.612-.228.497-.426 27.778-23.764L61.02 102.99l-36.57.006h-.655l-.612.226-4.53 1.674-1.956-5.283zm53.64-16.962l3.928-8.72-8.708 2.17L63.89 66l-5.428 7.576-3.187-3.663 3.18 8.594.268.748 3.342-4.677.976 5.904 5.093-1.266-2.297 5.1 5.065 2.38-4.69 2.347 3.103 5.117-5.58-1.372.28.733 3.18 8.598.036-4.855 9.054 2.227-5.308-8.753L79 86.722l-8.663-4.07zm-10.322.1c1.807-.67 3.813.254 4.48 2.06.67 1.806-.253 3.81-2.06 4.478l-2.42-6.538z" fill="#FFF"/></g></svg>