<svg width="75" height="40" viewBox="0 0 75 40" xmlns="http://www.w3.org/2000/svg"><title>site-logo-small</title><path d="M6.523 36.227c0 .755-.588 1.342-1.342 1.356H3.2v-5.157h1.98c.755 0 1.343.6 1.343 1.342v2.46zM5.18 30.12H.15v2.068l.922.126v5.423l-.923.126v2.04h5.113c2-.042 3.592-1.677 3.592-3.676v-2.46c0-2.027-1.65-3.648-3.676-3.648zm4.656 2.11l.936.098v5.38l-.936.127v2.07H17.4V36.27h-2.112l-.224 1.522h-2.18v-1.748h1.593V33.92h-1.594v-1.676h2.18l.225 1.524h2.11v-3.65h-7.56m14.58 2.084l.92.097v4.82l-2.49-6.975H18.52v2.083l.922.096v5.396l-.922.126V39.9h3.955v-2.08l-.922-.112V33.18l2.42 6.723h3.48V32.3l.922-.126V30.12H24.42m10.466 2.095l.88.1v4.164c0 .696-.558 1.255-1.243 1.255h-.783c-.685 0-1.257-.56-1.257-1.258V32.31l.992-.125-.03-2.07H29.49v2.097l.897.1v4.164c0 1.885 1.537 3.423 3.424 3.423h.67c1.89 0 3.414-1.54 3.414-3.425V32.31l.964-.126v-2.07h-3.97v2.097zm10.988-.013l.923.097v4.82l-2.488-6.975h-4.336v2.083l.923.096v5.396l-.924.126V39.9h3.955v-2.08l-.92-.112V33.18l2.416 6.723h3.48V32.3l.923-.126V30.12H45.87m4.937 3.66v2.46c0 2.028 1.634 3.663 3.66 3.663h3.83V36.27h-2.11l-.195 1.313H54.47c-.74 0-1.34-.602-1.34-1.342v-2.46c0-.74.6-1.325 1.34-1.325h1.525l.195 1.3h2.11v-3.62h-3.83c-2.026 0-3.66 1.635-3.66 3.648m8.61-1.567l.936.112v5.382l-.936.124v2.068h3.984v-2.097l-.936-.112v-5.367l.936-.14V30.12H59.42m10.932 6.135c0 .727-.588 1.328-1.33 1.328h-.99c-.728 0-1.328-.6-1.328-1.328V33.78c0-.74.6-1.34 1.327-1.34h.995c.74 0 1.33.6 1.33 1.34v2.475zm-1.33-6.136h-.99c-2.014 0-3.648 1.633-3.648 3.66v2.473c0 2 1.634 3.648 3.647 3.648h.995c2.013 0 3.662-1.65 3.662-3.647V33.78c0-2.025-1.65-3.66-3.662-3.66zm-34.2-9.47h-.38l-.354.13-2.623.967-1.13-3.062 2.623-.968.355-.13.288-.247L49.696 3.585l6.3 17.08-21.17-.014zm7.128 5.206c-1.807.667-3.82-.26-4.485-2.068l-.377-1.024 7.14.005c-.077 1.363-.956 2.597-2.278 3.085zM32.225 15.73l-4.608 1.7.628 1.705 1.338 3.627.628 1.703 4.61-1.7h.014l.647 1.755c1.07 2.904 4.3 4.394 7.203 3.324 2.16-.797 3.584-2.834 3.663-5.07l12.685.008L50.628 0 32.225 15.732zM60.043 3.31l-.81-1.914-4.385 1.83.81 1.914 4.385-1.83zm-1.975 8.245l8.038-3.128-.765-1.932-8.035 3.128.765 1.932zm10.964-4.282l-.765-1.932-1.69.647.766 1.932 1.69-.645zM59.9 16.31l.716 1.95 6.986-2.527-.716-1.95L59.9 16.31zm-46.584 1.805v3.948c0 2.886 2.35 5.235 5.235 5.235h1.587c2.9 0 5.257-2.35 5.257-5.235v-3.948c0-2.898-2.358-5.257-5.257-5.257H18.55c-2.885 0-5.234 2.36-5.234 5.257zm2.53 0c0-1.503 1.214-2.727 2.705-2.727h1.587c1.492 0 2.705 1.224 2.705 2.727v1.998c-.07-.008-.136-.02-.207-.02h-.497c-.162 0-.317.027-.467.064-.78.195-1.36.855-1.36 1.65v1.157c0 .212.05.414.126.6.163.4.48.726.887.918-.358.177-.757.286-1.185.286H18.55c-1.49 0-2.704-1.213-2.704-2.705v-3.948zm4.53-1.368h-.195c-.396 0-.72.324-.72.725v.49c0 .394.324.72.72.72h.2c.397 0 .723-.326.723-.72v-.49c0-.4-.325-.725-.723-.725zM5.598 22.014v2.904l-1.494.2v2.18h5.162v-2.216l-1.494-.18V22.09l3.76-6.767 1.348-.19c.144-.274.31-.534.49-.784v-1.47H8.208l.002 2.22.82.106-2.28 4.526-2.487-4.576.9-.108v-2.17H0v2.216l1.6.196 3.998 6.72z" fill="#FFF" fill-rule="evenodd"/></svg>