<svg width="128" height="70" viewBox="0 0 128 70" xmlns="http://www.w3.org/2000/svg"><title>site-logo-large</title><g fill="#FFF" fill-rule="evenodd"><path d="M11.427 63.398c0 1.32-1.03 2.348-2.35 2.372H5.6v-9.025h3.476c1.32 0 2.35 1.052 2.35 2.348v4.305zm-2.35-10.69H.26v3.62l1.618.22v9.492l-1.617.22v3.57h8.963c3.502-.072 6.293-2.934 6.293-6.432v-4.305c0-3.547-2.888-6.385-6.44-6.385zM17.232 56.4l1.64.173v9.417l-1.64.22v3.62H30.48v-6.36H26.78l-.392 2.668h-3.82v-3.06h2.79v-3.716h-2.79v-2.935h3.82l.392 2.666h3.697v-6.385H17.23M42.774 56.353l1.615.17v8.44L40.03 52.758H32.44v3.644l1.616.17v9.443l-1.616.22v3.596h6.93v-3.644l-1.616-.196v-7.925L41.99 69.83h6.096V56.525l1.618-.22V52.71h-6.93M61.114 56.377l1.543.173v7.288c0 1.224-.98 2.202-2.18 2.202h-1.37c-1.2 0-2.203-.978-2.203-2.202V56.55l1.738-.222-.05-3.62h-6.928v3.67l1.566.172v7.288c0 3.3 2.694 5.993 6 5.993h1.175c3.305 0 5.975-2.69 5.975-5.992V56.55l1.69-.222v-3.62h-6.956v3.67zM80.363 56.353l1.617.17v8.44l-4.36-12.205h-7.59v3.644l1.617.17v9.443l-1.616.22v3.596h6.93v-3.644l-1.616-.196v-7.925L79.58 69.83h6.097V56.525l1.616-.22V52.71h-6.93M89.008 59.117v4.304c0 3.55 2.865 6.41 6.416 6.41h6.708v-6.358h-3.697l-.342 2.297h-2.67c-1.297 0-2.35-1.052-2.35-2.35v-4.303c0-1.296 1.053-2.324 2.35-2.324h2.67l.342 2.275h3.697v-6.334h-6.708c-3.55 0-6.416 2.86-6.416 6.383M104.094 56.377l1.64.196v9.417l-1.64.22v3.62h6.978v-3.67l-1.64-.195v-9.392l1.64-.245v-3.62h-6.978M123.244 63.446c0 1.272-1.03 2.324-2.328 2.324h-1.738c-1.273 0-2.325-1.052-2.325-2.324v-4.33c0-1.295 1.052-2.348 2.325-2.348h1.738c1.3 0 2.328 1.053 2.328 2.348v4.33zm-2.328-10.738h-1.738c-3.526 0-6.39 2.863-6.39 6.408v4.33c0 3.498 2.864 6.385 6.39 6.385h1.738c3.526 0 6.416-2.886 6.416-6.384v-4.33c0-3.545-2.89-6.408-6.416-6.408zM61 36.137h-.662l-.622.23-4.595 1.692-1.978-5.36 4.595-1.694.622-.23.503-.43L87.053 6.27 98.09 36.16 61 36.136zM73.49 45.25c-3.164 1.166-6.69-.458-7.856-3.62l-.66-1.787 12.507.007c-.135 2.387-1.675 4.547-3.992 5.4zM56.453 27.53l-8.073 2.977 1.1 2.98 2.345 6.348 1.1 2.98L61 39.84h.02l1.132 3.073c1.876 5.078 7.537 7.685 12.62 5.81 3.784-1.393 6.28-4.957 6.417-8.87l22.22.013L88.69 0 56.453 27.53zm48.73-21.74l-1.418-3.348-7.68 3.204 1.418 3.348 7.68-3.204zm-3.46 14.432l14.082-5.475-1.34-3.38-14.08 5.474 1.34 3.382zm19.21-7.494l-1.34-3.38-2.96 1.126 1.34 3.38 2.96-1.126zm-16 15.817l1.255 3.412 12.24-4.424-1.255-3.412-12.24 4.425zM23.328 31.702v6.907c0 5.05 4.114 9.16 9.17 9.16h2.776c5.078 0 9.208-4.11 9.208-9.16V31.7c0-5.073-4.13-9.2-9.208-9.2H32.5c-5.058 0-9.172 4.127-9.172 9.2zm4.432 0c0-2.63 2.126-4.772 4.74-4.772h2.774c2.612 0 4.738 2.14 4.738 4.772v3.496c-.122-.014-.24-.034-.364-.034h-.87c-.286 0-.557.045-.82.112-1.366.34-2.38 1.495-2.38 2.885v2.027c0 .37.083.724.218 1.053.286.7.844 1.268 1.555 1.604-.63.31-1.328.5-2.076.5H32.5c-2.614 0-4.74-2.123-4.74-4.735V31.7zm7.937-2.394h-.344c-.698 0-1.264.565-1.264 1.267v.856c0 .693.565 1.264 1.263 1.264h.344c.697 0 1.268-.57 1.268-1.263v-.855c0-.702-.57-1.267-1.268-1.267zM9.807 38.524v5.082l-2.617.35v3.815h9.042v-3.877l-2.617-.312v-4.924l6.59-11.84 2.36-.333c.25-.48.54-.935.856-1.372v-2.57H14.38l.005 3.89 1.438.186-3.996 7.922-4.356-8.008 1.575-.188v-3.8H0v3.88l2.803.342 7.004 11.76z"/></g></svg>