<svg width="175" height="40" viewBox="0 0 175 40" xmlns="http://www.w3.org/2000/svg"><title>logo-mobile</title><g fill="none" fill-rule="evenodd"><path d="M166.72 30.618c-.54-.388-.716-1.1-.354-1.657 3.247-4.986 8.63-12.39 8.63-17.44 0-6.213-5.082-11.243-11.293-11.243-6.212 0-11.294 5.03-11.294 11.242 0 5.05 5.574 12.8 8.782 17.725.34.52.215 1.195-.263 1.592-1.338 1.112-2.06 2.932-1.544 4.888.426 1.61 1.744 2.928 3.36 3.322 3.13.763 5.952-1.527 5.952-4.592 0-1.58-.784-2.978-1.98-3.836" fill="#EED11C"/><path d="M164.67 6.263c-2.145-.363-4.422.496-5.79 2.187-2.708 3.344-1.396 8.078 2.243 9.722.667.3 1.357.47 2.047.532l-.07.03v4.758l5.643-7.3h-.004c.256-.35.483-.735.672-1.15 1.644-3.64-.502-8.06-4.744-8.78M12.458 35.457c.217.47.398.956.542 1.45.144.498.25 1 .317 1.506-.876.318-1.663.53-2.362.63-.7.1-1.453.15-2.262.15-1.43 0-2.686-.23-3.763-.692-1.078-.462-1.982-1.11-2.716-1.944C1.484 35.723.93 34.734.56 33.59c-.37-1.146-.557-2.394-.557-3.74 0-1.347.193-2.6.582-3.75.386-1.156.946-2.15 1.68-2.995.73-.843 1.632-1.5 2.703-1.97 1.068-.473 2.285-.708 3.648-.708.808 0 1.554.05 2.236.15.68.102 1.418.314 2.21.633-.035.504-.136.997-.304 1.476-.17.48-.354.964-.556 1.454-.59-.202-1.112-.345-1.565-.43-.456-.084-.994-.127-1.617-.127-1.618 0-2.86.528-3.727 1.58-.868 1.053-1.302 2.613-1.302 4.686 0 4.107 1.744 6.16 5.23 6.16.624 0 1.17-.04 1.643-.125.47-.084 1.002-.228 1.592-.43" fill="#FFF"/><path d="M13.064 25.832c.605-.1 1.203-.152 1.793-.152.59 0 1.188.05 1.792.152v6.92c0 .692.054 1.26.162 1.705.112.45.28.802.507 1.063.226.26.51.447.846.555.337.11.73.165 1.186.165.623 0 1.144-.06 1.566-.177v-10.23c.606-.102 1.196-.153 1.767-.153.59 0 1.188.05 1.795.152v12.554c-.54.185-1.253.366-2.137.543-.883.175-1.804.263-2.764.263-.86 0-1.684-.066-2.475-.202-.794-.133-1.487-.42-2.085-.86-.597-.436-1.072-1.075-1.425-1.92-.354-.84-.53-1.96-.53-3.357V25.83zM39.8 28.535c-.338-.085-.61-.14-.82-.165-.21-.024-.475-.036-.796-.036-.555 0-1.04.113-1.454.34-.41.227-.752.532-1.02.91-.27.378-.47.823-.595 1.338-.126.514-.19 1.048-.19 1.603 0 .69.085 1.277.253 1.756.17.483.4.865.695 1.153.294.286.643.49 1.05.62.402.124.84.188 1.312.188.286 0 .547-.012.784-.04.232-.023.493-.077.78-.162v-7.502zm0-8.11c.304-.05.602-.082.898-.1.294-.017.583-.026.87-.026.287 0 .58.007.886.023.302.02.606.052.908.1V38.46c-.79.238-1.595.418-2.41.543-.82.128-1.808.19-2.97.19-.894 0-1.747-.12-2.565-.366-.817-.242-1.536-.63-2.16-1.162-.622-.53-1.115-1.217-1.477-2.057-.362-.844-.542-1.872-.542-3.085 0-.96.154-1.864.466-2.715.313-.85.76-1.588 1.338-2.21.582-.623 1.285-1.114 2.11-1.48.826-.36 1.743-.54 2.754-.54.303 0 .62.01.948.038.327.024.643.08.945.165v-5.357zm10.786 16.04c.944 0 1.622-.35 2.033-1.05.41-.694.617-1.702.617-3.015 0-1.314-.206-2.32-.62-3.018-.41-.7-1.088-1.05-2.032-1.05-.925 0-1.595.35-2.008 1.05-.412.7-.62 1.704-.62 3.018 0 1.313.208 2.32.62 3.017.413.7 1.083 1.05 2.008 1.05m0 2.727c-1.06 0-1.982-.173-2.765-.516-.782-.346-1.432-.827-1.944-1.44-.514-.616-.902-1.335-1.163-2.16-.26-.826-.39-1.718-.39-2.678s.13-1.86.39-2.704c.26-.84.65-1.57 1.163-2.185.512-.613 1.162-1.096 1.945-1.45.785-.352 1.706-.53 2.767-.53 1.06 0 1.988.178 2.78.53.79.354 1.447.837 1.97 1.45.52.617.91 1.347 1.162 2.187.252.843.38 1.744.38 2.704 0 .96-.128 1.853-.38 2.68-.254.824-.64 1.543-1.164 2.16-.522.612-1.18 1.093-1.97 1.44-.79.342-1.718.515-2.78.515m7.857-18.465c.672-.1 1.32-.153 1.945-.153.657 0 1.305.052 1.944.152l4.17 10.406 4.294-10.408c.52-.1 1.102-.153 1.743-.153.637 0 1.252.052 1.842.152l.857 18.162c-.64.1-1.247.15-1.818.15-.574 0-1.137-.05-1.694-.15l-.455-12.33-3.688 8.54c-.237.033-.48.064-.732.09-.253.024-.506.035-.758.035-.218 0-.438-.008-.657-.024-.22-.016-.446-.05-.682-.1l-3.435-8.716-.353 12.505c-.54.1-1.062.15-1.567.15-.538 0-1.096-.05-1.667-.15l.707-18.164zm18.14 2.904c-.1-.57-.152-1.136-.152-1.692 0-.538.053-1.104.154-1.693.286-.05.595-.09.923-.116.327-.024.627-.036.897-.036.285 0 .598.01.935.035.334.025.646.064.932.114.053.286.086.567.102.845s.027.562.027.847c0 .27-.01.546-.027.832-.016.288-.05.573-.1.86-.287.05-.595.084-.922.1-.327.016-.636.025-.922.025-.27 0-.57-.01-.908-.025-.338-.016-.65-.05-.937-.1m17.614 11.825c.218.47.4.956.543 1.45.144.498.248 1 .316 1.506-.875.318-1.663.53-2.362.63-.7.1-1.453.15-2.26.15-1.432 0-2.688-.23-3.766-.692-1.076-.462-1.98-1.11-2.714-1.944-.733-.833-1.286-1.822-1.656-2.967-.37-1.146-.555-2.394-.555-3.74 0-1.347.194-2.6.582-3.75.387-1.156.946-2.15 1.68-2.995.73-.843 1.632-1.5 2.703-1.97 1.07-.473 2.286-.708 3.65-.708.807 0 1.553.05 2.235.15.68.102 1.42.314 2.21.633-.035.504-.136.997-.304 1.476-.17.48-.356.964-.557 1.454-.59-.202-1.112-.345-1.566-.43-.455-.084-.994-.127-1.616-.127-1.617 0-2.86.528-3.726 1.58-.868 1.053-1.302 2.613-1.302 4.686 0 4.107 1.744 6.16 5.23 6.16.623 0 1.17-.04 1.643-.125.47-.084 1-.228 1.59-.43m2.357-11.82c-.1-.57-.153-1.137-.153-1.693 0-.538.05-1.104.15-1.693.286-.05.595-.09.924-.116.327-.024.627-.036.896-.036.287 0 .6.01.936.035.336.025.648.064.933.114.05.286.083.567.1.845.016.278.026.562.026.847 0 .27-.01.546-.027.832-.017.288-.05.573-.1.86-.287.05-.595.084-.92.1-.33.016-.64.025-.926.025-.27 0-.57-.01-.908-.025-.337-.016-.65-.05-.935-.1m5.585 2.2c.604-.1 1.203-.152 1.793-.152.59 0 1.187.05 1.792.152v6.92c0 .692.055 1.26.165 1.705.11.45.28.802.505 1.063.23.26.51.447.847.555.337.11.733.165 1.186.165.623 0 1.145-.06 1.567-.177v-10.23c.606-.102 1.196-.153 1.768-.153.59 0 1.188.05 1.795.152v12.554c-.54.185-1.253.366-2.137.543-.883.175-1.804.263-2.764.263-.86 0-1.684-.066-2.476-.202-.793-.133-1.486-.42-2.084-.86-.598-.436-1.074-1.075-1.427-1.92-.353-.84-.53-1.96-.53-3.357V25.83zm20.738 2.703c-.337-.085-.61-.14-.82-.165-.21-.024-.475-.036-.796-.036-.554 0-1.04.113-1.453.34-.412.227-.752.532-1.022.91s-.47.823-.594 1.338c-.126.514-.19 1.048-.19 1.603 0 .69.085 1.277.254 1.756.168.483.4.865.694 1.153.294.286.644.49 1.05.62.402.124.84.188 1.313.188.284 0 .544-.012.78-.04.235-.023.496-.077.78-.162v-7.502zm0-8.11c.304-.05.602-.082.9-.1.292-.017.582-.026.87-.026.286 0 .58.007.884.023.302.02.606.052.91.1V38.46c-.793.238-1.597.418-2.412.543-.82.128-1.808.19-2.97.19-.894 0-1.746-.12-2.565-.366-.816-.242-1.535-.63-2.16-1.162-.62-.53-1.115-1.217-1.476-2.057-.362-.844-.543-1.872-.543-3.085 0-.96.156-1.864.468-2.715.313-.85.76-1.588 1.34-2.21.58-.623 1.284-1.114 2.108-1.48.827-.36 1.744-.54 2.755-.54.303 0 .62.01.948.038.327.024.644.08.946.165v-5.357zm11.77 12.48c-.2-.035-.42-.063-.655-.09-.236-.024-.445-.037-.63-.037-.828 0-1.48.148-1.96.442-.48.296-.72.77-.72 1.428 0 .438.093.776.278 1.01.185.237.41.41.67.518.26.11.54.177.834.202.295.026.55.04.77.04.252 0 .505-.022.758-.065.253-.042.47-.08.656-.113v-3.334zm0-2.602c0-.405-.064-.732-.2-.985-.137-.253-.32-.45-.555-.594-.237-.142-.527-.24-.872-.29-.345-.05-.73-.075-1.15-.075-.91 0-1.878.174-2.904.53-.236-.44-.413-.854-.53-1.24-.12-.388-.178-.85-.178-1.39.74-.253 1.48-.437 2.223-.555.74-.12 1.43-.176 2.072-.176 1.75 0 3.117.42 4.1 1.26.988.843 1.48 2.19 1.48 4.043v7.58c-.59.183-1.306.36-2.147.53-.843.166-1.794.25-2.855.25-.86 0-1.648-.074-2.363-.226-.716-.152-1.33-.405-1.844-.758-.513-.356-.91-.81-1.185-1.365-.278-.557-.418-1.238-.418-2.048 0-.807.172-1.485.517-2.032.346-.547.792-.985 1.338-1.314.547-.33 1.158-.562 1.832-.706.674-.142 1.346-.214 2.02-.214.49 0 1.03.026 1.617.078v-.305zm12.732-1.768c-.337-.085-.61-.14-.82-.165-.21-.024-.475-.036-.796-.036-.557 0-1.04.113-1.455.34-.412.227-.752.532-1.022.91s-.47.823-.594 1.338c-.126.514-.19 1.048-.19 1.603 0 .69.084 1.277.253 1.756.168.483.398.865.694 1.153.295.286.645.49 1.05.62.402.124.84.188 1.313.188.287 0 .547-.012.784-.04.235-.023.495-.077.78-.162v-7.502zm0-8.11c.304-.05.602-.082.9-.1.292-.017.582-.026.87-.026.286 0 .58.007.884.023.3.02.605.052.907.1V38.46c-.792.238-1.596.418-2.412.543-.818.128-1.807.19-2.968.19-.894 0-1.747-.12-2.566-.366-.815-.242-1.534-.63-2.157-1.162-.623-.53-1.116-1.217-1.478-2.057-.362-.844-.543-1.872-.543-3.085 0-.96.154-1.864.467-2.715.31-.85.757-1.588 1.337-2.21.582-.623 1.285-1.114 2.11-1.48.826-.36 1.742-.54 2.754-.54.303 0 .62.01.948.038.326.024.643.08.945.165v-5.357zm-121.217 3.21c-.1-.57-.152-1.137-.152-1.693 0-.538.05-1.104.152-1.693.285-.05.594-.09.923-.116.33-.024.63-.036.898-.036.286 0 .6.01.935.035.336.025.648.064.934.114.05.286.084.567.1.845.017.278.027.562.027.847 0 .27-.01.546-.027.832-.016.288-.05.573-.1.86-.286.05-.594.084-.92.1-.33.016-.638.025-.924.025-.27 0-.572-.01-.908-.025-.338-.016-.65-.05-.936-.1M28 25.68c-.57 0-1.162.05-1.768.152v13.21c.606.1 1.188.152 1.743.152.572 0 1.162-.052 1.768-.152v-13.21c-.606-.1-1.188-.152-1.743-.152m50.425 0c-.57 0-1.16.05-1.767.152v13.21c.606.1 1.188.152 1.742.152.572 0 1.162-.052 1.77-.152v-13.21c-.608-.1-1.19-.152-1.745-.152m19.968 0c-.57 0-1.16.05-1.767.152v13.21c.606.1 1.188.152 1.743.152.573 0 1.163-.052 1.77-.152v-13.21c-.607-.1-1.19-.152-1.744-.152m65.614 10.196c-.872 0-1.557-.823-1.32-1.733.12-.458.497-.835.956-.954.91-.24 1.733.445 1.733 1.317 0 .77-.617 1.368-1.37 1.368" fill="#FFF"/></g></svg>